<?xml version="1.0"?>
<svg xmlns="http://www.w3.org/2000/svg" xmlns:xlink="http://www.w3.org/1999/xlink" version="1.1" viewBox="0 0 224 224" width="26px" height="26px"><g fill="none" fill-rule="nonzero" stroke="none" stroke-width="1" stroke-linecap="butt" stroke-linejoin="miter" stroke-miterlimit="10" stroke-dasharray="" stroke-dashoffset="0" font-family="none" font-weight="none" font-size="none" text-anchor="none" style="mix-blend-mode: normal"><path d="M0,224v-224h224v224z" fill="none"/><g fill="#2ecc71"><g id="surface1"><path d="M173.11538,2.15385c-5.11538,-0.03365 -10.12981,1.78365 -14,5.65385l-8.61538,8.88462l56.80769,57.07692l8.61538,-8.88462c7.77404,-7.77404 7.84134,-20.39423 0,-28.26923l-28.53846,-28.53846c-3.9375,-3.9375 -9.15385,-5.88943 -14.26923,-5.92308zM140.80769,24.5l-13.46154,12.92308l59.23077,59.23077l13.73077,-12.65385zM118.73077,46.84615l-93.15385,92.34615c-2.15385,1.11057 -3.70192,3.0625 -4.30769,5.38462l-19.92308,67.57692c-0.90865,2.96154 -0.10096,6.22596 2.08654,8.41347c2.1875,2.1875 5.45192,2.99519 8.41346,2.08653l67.57692,-19.92308c3.12981,-0.47115 5.72116,-2.65866 6.73077,-5.65385l91.80769,-91l-12.65385,-12.65385l-94.23077,94.5l-37.96154,11.03846l-8.07692,-8.07692l11.57692,-39.57692l93.42308,-93.15385zM139.19231,67.57692l-94.5,94.76923l13.73077,2.96154l1.88462,12.65385l94.76923,-94.5z"/></g></g></g></svg>
